PathFileType  4	(X/Y/Z) D:\Research_projects\MuscleProsody\BulkSports2Dtrack\RetrackedSports2D\p1_sample60_cam1\p1_sample60_cam1_Sports2D\pose-3d
DataRate	CameraRate	NumFrames	NumMarkers	Units	OrigDataRate	OrigDataStartFrame	OrigNumFrames
60.0	60.0	14	22	m	60.0	487	780
Frame#	Time	Hip			RHip			RKnee			RAnkle			RBigToe			RSmallToe			RHeel			LHip			LKnee			LAnkle			LBigToe			LSmallToe			LHeel			Neck			Head			Nose			RShoulder			RElbow			RWrist			LShoulder			LElbow			LWrist			
		X1	Y1	Z1	X2	Y2	Z2	X3	Y3	Z3	X4	Y4	Z4	X5	Y5	Z5	X6	Y6	Z6	X7	Y7	Z7	X8	Y8	Z8	X9	Y9	Z9	X10	Y10	Z10	X11	Y11	Z11	X12	Y12	Z12	X13	Y13	Z13	X14	Y14	Z14	X15	Y15	Z15	X16	Y16	Z16	X17	Y17	Z17	X18	Y18	Z18	X19	Y19	Z19	X20	Y20	Z20	X21	Y21	Z21	X22	Y22	Z22	

488	8.1166667	1.6645393	0.7357904	0.0301000	1.5831235	0.7808940	0.0301000	1.3544992	0.4512263	0.1290000	1.1316238	0.1536907	0.0230000	1.1748924	-0.0042060	0.2179000	1.1032942	0.0184088	0.1804000	1.0892358	0.1352531	-0.0119000	1.7435746	0.6925067	0.0301000	1.5029229	0.3860712	0.1290000	1.2726464	0.1421693	0.0230000	1.3111794	-0.0082134	0.2179000	1.3436478	0.0171059	0.1804000	1.2125191	0.1303310	-0.0119000	2.0363308	1.2526901	0.0008000	2.2725307	1.4396641	0.0655000	2.1830529	1.2936643	0.1076000	1.8103410	1.2663785	-0.0127500	1.5743290	1.0945461	0.0702000	1.8754645	1.1062129	0.1076000	2.0785093	1.0953744	-0.0127500	2.0453383	0.8483987	0.0702000	2.1299298	0.8600134	0.1076000
489	8.1333333	1.6633722	0.7370044	0.0301000	1.5825868	0.7830808	0.0301000	1.3539352	0.4520776	0.1290000	1.1304829	0.1538197	0.0230000	1.1757519	-0.0049567	0.2179000	1.1035740	0.0176556	0.1804000	1.0879191	0.1359476	-0.0119000	1.7429939	0.6938966	0.0301000	1.5024995	0.3864185	0.1290000	1.2717325	0.1422195	0.0230000	1.3127155	-0.0091111	0.2179000	1.3442960	0.0170815	0.1804000	1.2125643	0.1299181	-0.0119000	2.0362257	1.2525437	0.0008000	2.2728386	1.4392068	0.0655000	2.1836502	1.2928517	0.1076000	1.8081289	1.2656455	-0.0127500	1.5746710	1.0819624	0.0702000	1.8555016	1.1173194	0.1076000	2.0767887	1.0954156	-0.0127500	2.0317747	0.8472829	0.0702000	2.1449279	0.8528799	0.1076000
490	8.1500000	1.6621048	0.7380630	0.0301000	1.5820001	0.7848226	0.0301000	1.3533472	0.4525776	0.1290000	1.1294279	0.1538381	0.0230000	1.1764863	-0.0057857	0.2179000	1.1038208	0.0168453	0.1804000	1.0866490	0.1364973	-0.0119000	1.7420700	0.6949648	0.0301000	1.5019839	0.3866763	0.1290000	1.2707858	0.1422514	0.0230000	1.3141465	-0.0102323	0.2179000	1.3448298	0.0169085	0.1804000	1.2127187	0.1293804	-0.0119000	2.0361025	1.2522733	0.0008000	2.2731146	1.4387354	0.0655000	2.1842721	1.2920017	0.1076000	1.8059927	1.2648092	-0.0127500	1.5751387	1.0708777	0.0702000	1.8295869	1.1232540	0.1076000	2.0752044	1.0953179	-0.0127500	2.0187173	0.8465960	0.0702000	2.1584364	0.8414687	0.1076000
491	8.1666667	1.6607605	0.7388801	0.0301000	1.5813096	0.7859494	0.0301000	1.3526934	0.4526507	0.1290000	1.1285148	0.1537378	0.0230000	1.1770083	-0.0066596	0.2179000	1.1039880	0.0160076	0.1804000	1.0854859	0.1368824	-0.0119000	1.7408045	0.6955578	0.0301000	1.5013461	0.3867884	0.1290000	1.2698393	0.1422658	0.0230000	1.3153523	-0.0115159	0.2179000	1.3451612	0.0166095	0.1804000	1.2129780	0.1287585	-0.0119000	2.0359604	1.2519089	0.0008000	2.2733473	1.4382194	0.0655000	2.1848903	1.2911353	0.1076000	1.8039748	1.2638984	-0.0127500	1.5757337	1.0618798	0.0702000	1.7987386	1.1238034	0.1076000	2.0738422	1.0950809	-0.0127500	2.0068193	0.8463451	0.0702000	2.1697023	0.8261970	0.1076000
492	8.1833333	1.6593643	0.7393822	0.0301000	1.5804643	0.7863361	0.0301000	1.3519460	0.4522772	0.1290000	1.1278075	0.1535527	0.0230000	1.1772590	-0.0075297	0.2179000	1.1040457	0.0151917	0.1804000	1.0844881	0.1371160	-0.0119000	1.7392181	0.6955660	0.0301000	1.5005585	0.3867266	0.1290000	1.2689333	0.1422834	0.0230000	1.3162632	-0.0128793	0.2179000	1.3452430	0.0162256	0.1804000	1.2133322	0.1281024	-0.0119000	2.0357768	1.2514825	0.0008000	2.2735208	1.4376453	0.0655000	2.1854863	1.2902722	0.1076000	1.8020986	1.2629574	-0.0127500	1.5764223	1.0553972	0.0702000	1.7643068	1.1192121	0.1076000	2.0727367	1.0947143	-0.0127500	1.9965567	0.8464862	0.0702000	2.1781661	0.8077491	0.1076000
493	8.2000000	1.6579582	0.7395179	0.0301000	1.5794529	0.7859182	0.0301000	1.3511038	0.4514976	0.1290000	1.1273570	0.1533311	0.0230000	1.1772231	-0.0083366	0.2179000	1.1039725	0.0144591	0.1804000	1.0837146	0.1372191	-0.0119000	1.7373536	0.6949535	0.0301000	1.4996122	0.3864966	0.1290000	1.2681073	0.1423383	0.0230000	1.3168713	-0.0142320	0.2179000	1.3450834	0.0157920	0.1804000	1.2137657	0.1274763	-0.0119000	2.0355222	1.2510162	0.0008000	2.2736267	1.4370200	0.0655000	2.1860492	1.2894223	0.1076000	1.8004037	1.2620384	-0.0127500	1.5771449	1.0516478	0.0702000	1.7279386	1.1102128	0.1076000	2.0718759	1.0942228	-0.0127500	1.9881943	0.8469366	0.0702000	2.1835629	0.7870868	0.1076000
494	8.2166667	1.6565975	0.7392765	0.0301000	1.5783049	0.7847099	0.0301000	1.3501892	0.4504029	0.1290000	1.1271893	0.1531230	0.0230000	1.1769250	-0.0090236	0.2179000	1.1037612	0.0138686	0.1804000	1.0832132	0.1372078	-0.0119000	1.7352766	0.6937690	0.0301000	1.4985162	0.3861312	0.1290000	1.2673918	0.1424691	0.0230000	1.3172231	-0.0154823	0.2179000	1.3447449	0.0153357	0.1804000	1.2142514	0.1269488	-0.0119000	2.0351823	1.2505195	0.0008000	2.2736867	1.4363501	0.0655000	2.1865764	1.2885842	0.1076000	1.7989418	1.2611953	-0.0127500	1.5777994	1.0506048	0.0702000	1.6914959	1.0979504	0.1076000	2.0712164	1.0936096	-0.0127500	1.9817864	0.8475933	0.0702000	2.1859486	0.7654174	0.1076000
495	8.2333333	1.6553350	0.7386988	0.0301000	1.5770591	0.7828009	0.0301000	1.3492304	0.4491023	0.1290000	1.1273038	0.1529802	0.0230000	1.1764184	-0.0095534	0.2179000	1.1034289	0.0134615	0.1804000	1.0829972	0.1371006	-0.0119000	1.7330616	0.6921239	0.0301000	1.4972799	0.3856668	0.1290000	1.2668034	0.1427154	0.0230000	1.3174039	-0.0165434	0.2179000	1.3443241	0.0148885	0.1804000	1.2147481	0.1265797	-0.0119000	2.0347668	1.2499950	0.0008000	2.2737518	1.4356320	0.0655000	2.1870701	1.2877523	0.1076000	1.7977471	1.2604714	-0.0127500	1.5782118	1.0519772	0.0702000	1.6568536	1.0837800	0.1076000	2.0707022	1.0928914	-0.0127500	1.9771956	0.8483535	0.0702000	2.1856575	0.7440625	0.1076000
496	8.2500000	1.6542055	0.7378612	0.0301000	1.5757400	0.7803319	0.0301000	1.3482476	0.4476857	0.1290000	1.1276743	0.1529463	0.0230000	1.1757795	-0.0099189	0.2179000	1.1030093	0.0132502	0.1804000	1.0830335	0.1369243	-0.0119000	1.7307721	0.6901572	0.0301000	1.4958929	0.3851183	0.1290000	1.2663482	0.1431128	0.0230000	1.3175053	-0.0173477	0.2179000	1.3439138	0.0144859	0.1804000	1.2152105	0.1264126	-0.0119000	2.0343005	1.2494484	0.0008000	2.2738722	1.4348675	0.0655000	2.1875357	1.2869271	0.1076000	1.7968235	1.2598943	-0.0127500	1.5781257	1.0552271	0.0702000	1.6256282	1.0689969	0.1076000	2.0702795	1.0921082	-0.0127500	1.9741404	0.8491330	0.0702000	2.1832286	0.7242461	0.1076000
497	8.2666667	1.6532207	0.7368476	0.0301000	1.5743568	0.7774643	0.0301000	1.3472509	0.4462136	0.1290000	1.1282611	0.1530505	0.0230000	1.1750955	-0.0101383	0.2179000	1.1025330	0.0132191	0.1804000	1.0832572	0.1367146	-0.0119000	1.7284543	0.6880051	0.0301000	1.4943323	0.3844799	0.1290000	1.2660248	0.1436821	0.0230000	1.3175932	-0.0178593	0.2179000	1.3435765	0.0141543	0.1804000	1.2156014	0.1264670	-0.0119000	2.0338105	1.2488976	0.0008000	2.2740750	1.4340796	0.0655000	2.1879798	1.2861099	0.1076000	1.7961549	1.2594838	-0.0127500	1.5772635	1.0596898	0.0702000	1.5989991	1.0546137	0.1076000	2.0699040	1.0913181	-0.0127500	1.9722786	0.8498798	0.0702000	2.1793346	0.7069065	0.1076000
498	8.2833333	1.6523742	0.7357292	0.0301000	1.5729192	0.7743637	0.0301000	1.3462516	0.4447336	0.1290000	1.1290275	0.1533128	0.0230000	1.1744417	-0.0102425	0.2179000	1.1020187	0.0133360	0.1804000	1.0836048	0.1365088	-0.0119000	1.7261565	0.6857852	0.0301000	1.4926005	0.3837520	0.1290000	1.2658284	0.1444186	0.0230000	1.3177075	-0.0180710	0.2179000	1.3433523	0.0139096	0.1804000	1.2158967	0.1267345	-0.0119000	2.0333174	1.2483700	0.0008000	2.2743711	1.4333080	0.0655000	2.1884026	1.2852914	0.1076000	1.7957228	1.2592584	-0.0127500	1.5754471	1.0647783	0.0702000	1.5776730	1.0412423	0.1076000	2.0695457	1.0905833	-0.0127500	1.9713034	0.8505737	0.0702000	2.1747074	0.6925925	0.1076000
499	8.3000000	1.6516481	0.7345629	0.0301000	1.5714608	0.7712028	0.0301000	1.3452815	0.4433026	0.1290000	1.1299502	0.1537468	0.0230000	1.1738637	-0.0102616	0.2179000	1.1014753	0.0135622	0.1804000	1.0840444	0.1363316	-0.0119000	1.7239542	0.6836012	0.0301000	1.4907606	0.3829707	0.1290000	1.2657572	0.1452935	0.0230000	1.3178783	-0.0179981	0.2179000	1.3432744	0.0137662	0.1804000	1.2160867	0.1271860	-0.0119000	2.0328342	1.2478920	0.0008000	2.2747675	1.4326001	0.0655000	2.1887966	1.2844525	0.1076000	1.7955198	1.2592292	-0.0127500	1.5726531	1.0701104	0.0702000	1.5619242	1.0290679	0.1076000	2.0691891	1.0899600	-0.0127500	1.9710196	0.8512045	0.0702000	2.1700198	0.6814340	0.1076000
500	8.3166667	1.6510175	0.7333969	0.0301000	1.5700629	0.7681703	0.0301000	1.3444028	0.4420058	0.1290000	1.1310157	0.1543518	0.0230000	1.1733808	-0.0102202	0.2179000	1.1009107	0.0138551	0.1804000	1.0845848	0.1361815	-0.0119000	1.7219567	0.6815653	0.0301000	1.4889469	0.3822148	0.1290000	1.2658245	0.1462613	0.0230000	1.3181139	-0.0176839	0.2179000	1.3433547	0.0137346	0.1804000	1.2161832	0.1277801	-0.0119000	2.0323762	1.2474845	0.0008000	2.2752619	1.4320097	0.0655000	2.1891551	1.2835807	0.1076000	1.7955487	1.2593895	-0.0127500	1.5689584	1.0754844	0.0702000	1.5516817	1.0178872	0.1076000	2.0688335	1.0894900	-0.0127500	1.9713596	0.8517407	0.0702000	2.1657485	0.6731891	0.1076000
501	8.3333333	1.6504607	0.7322755	0.0301000	1.5688555	0.7654679	0.0301000	1.3436956	0.4409567	0.1290000	1.1322062	0.1551068	0.0230000	1.1729987	-0.0101367	0.2179000	1.1003454	0.0141699	0.1804000	1.0852551	0.1360307	-0.0119000	1.7202941	0.6798104	0.0301000	1.4873493	0.3815921	0.1290000	1.2660648	0.1472682	0.0230000	1.3183921	-0.0171973	0.2179000	1.3435685	0.0138149	0.1804000	1.2162268	0.1284756	-0.0119000	2.0319680	1.2471668	0.0008000	2.2758303	1.4315941	0.0655000	2.1894787	1.2826881	0.1076000	1.7958108	1.2597192	-0.0127500	1.5644884	1.0808102	0.0702000	1.5466698	1.0072189	0.1076000	2.0684928	1.0891907	-0.0127500	1.9723406	0.8521220	0.0702000	2.1620998	0.6673545	0.1076000
